<svg xmlns="http://www.w3.org/2000/svg" xmlns:xlink="http://www.w3.org/1999/xlink" id="Group_12806" data-name="Group 12806" width="147.575" height="31.459" viewBox="0 0 147.575 31.459"><defs><clipPath id="clip-path"><path id="Path_7003" data-name="Path 7003" d="M32.458,26.492a6.4,6.4,0,1,1,6.4,6.4,6.4,6.4,0,0,1-6.4-6.4m-6.193-.378c0,.126-.006.251-.006.378a12.6,12.6,0,1,0,6.2-10.848c0-5.409-7.04-7.339-7.231-7.388,1.447,6.759,1.06,16.169,1.037,17.859" transform="translate(-25.229 -8.255)" fill="none"></path></clipPath><clipPath id="clip-path-2"><path id="Path_7070" data-name="Path 7070" d="M81.532,14.035a12.672,12.672,0,1,0,9.775,20.738s-3.164-4.424-7.387-2.556a5.9,5.9,0,0,1-2.388.494,6,6,0,0,1,0-12.007h2.776c5.957,0,8.018-6.648,8.181-7.1a108.825,108.825,0,0,1-10.957.43" transform="translate(-68.861 -13.605)" fill="none"></path></clipPath><clipPath id="clip-path-3"><path id="Path_7153" data-name="Path 7153" d="M67.706,13.5a35.211,35.211,0,0,1-7.07.572c-.834,0-1.507-.016-1.952-.026l-.361-.007c-.074,0-.146,0-.221,0a7.57,7.57,0,1,0,0,15.14h3.676a2.611,2.611,0,0,1,0,5.222h-5.9c-3.463.075-4.616,4.3-4.663,4.485l-.339,1.287,1.3-.278a35.223,35.223,0,0,1,7.07-.572c.835,0,1.507.016,1.953.026l.36.008.221,0a7.569,7.569,0,1,0,0-15.139H58.1A2.611,2.611,0,1,1,58.1,19h5.9c3.463-.074,4.616-4.3,4.663-4.484l.339-1.287Z" transform="translate(-50.532 -13.224)" fill="none"></path></clipPath><clipPath id="clip-path-4"><rect id="Rectangle_3357" data-name="Rectangle 3357" width="10.579" height="10.135" fill="none"></rect></clipPath><clipPath id="clip-path-5"><path id="Path_7154" data-name="Path 7154" d="M63.735,41.51a7.58,7.58,0,0,0,6.578-5.99c-.6-4.465-7.414-4.14-7.414-4.14a2.611,2.611,0,0,1,0,5.222H59.741c0,1.643-.007,3.511-.006,4.907Z" transform="translate(-59.735 -31.375)" fill="none"></path></clipPath><linearGradient id="linear-gradient" x1="-3.557" y1="53.536" x2="-3.496" y2="53.536" gradientUnits="objectBoundingBox"><stop offset="0" stop-color="#fff"></stop><stop offset="1" stop-color="#1a1818"></stop></linearGradient><clipPath id="clip-path-6"><rect id="Rectangle_3359" data-name="Rectangle 3359" width="10.58" height="10.186" fill="none"></rect></clipPath><clipPath id="clip-path-7"><path id="Path_7155" data-name="Path 7155" d="M50.709,20.19c.605,4.466,7.415,4.14,7.415,4.14a2.611,2.611,0,1,1,0-5.222h3.158c0-1.649.008-3.526.007-4.924-.208,0-.417,0-.631,0-.835,0-1.507-.016-1.952-.026-.153,0-.275-.007-.362-.008s-.147,0-.221,0a7.583,7.583,0,0,0-7.415,6.041" transform="translate(-50.709 -14.149)" fill="none"></path></clipPath><linearGradient id="linear-gradient-2" x1="-4.21" y1="74.031" x2="-4.127" y2="74.031" xlink:href="#linear-gradient"></linearGradient></defs><g id="Group_11258" data-name="Group 11258" transform="translate(0 0)" clip-path="url(#clip-path)"><path id="Path_6945" data-name="Path 6945" d="M65.925,29.194l-.228.228.228.228Z" transform="translate(-30.144 -10.798)" fill="#b0006d"></path><path id="Path_6946" data-name="Path 6946" d="M65.481,29.681l-.228-.228-3.2,3.206,3.2,3.206.228-.228Z" transform="translate(-29.701 -10.83)" fill="#be0067"></path><rect id="Rectangle_3167" data-name="Rectangle 3167" width="4.534" height="4.534" transform="translate(29.14 25.036) rotate(-45.016)" fill="#ca005d"></rect><rect id="Rectangle_3168" data-name="Rectangle 3168" width="4.534" height="4.534" transform="translate(25.934 28.241) rotate(-45)" fill="#d3004c"></rect><rect id="Rectangle_3169" data-name="Rectangle 3169" width="4.534" height="4.534" transform="matrix(0.707, -0.707, 0.707, 0.707, 22.729, 31.446)" fill="#d80036"></rect><rect id="Rectangle_3170" data-name="Rectangle 3170" width="4.534" height="4.534" transform="translate(19.523 34.653) rotate(-45.008)" fill="#da001f"></rect><path id="Path_6947" data-name="Path 6947" d="M49.987,51.131l.227-.226L47.008,47.7,43.8,50.905l.227.226Z" transform="translate(-27.485 -13.046)" fill="#de1b1b"></path><path id="Path_6948" data-name="Path 6948" d="M44,51.574l-.227-.226-.226.226Z" transform="translate(-27.454 -13.489)" fill="#e42f18"></path><path id="Path_6949" data-name="Path 6949" d="M65.925,21.9l-.228.228.228.228Z" transform="translate(-30.144 -9.912)" fill="#6d196e"></path><path id="Path_6950" data-name="Path 6950" d="M65.481,22.383l-.228-.228-3.2,3.207,3.2,3.206.228-.228Z" transform="translate(-29.701 -9.943)" fill="#86146e"></path><rect id="Rectangle_3171" data-name="Rectangle 3171" width="4.533" height="4.533" transform="translate(29.141 18.624) rotate(-45.008)" fill="#9e106b"></rect><rect id="Rectangle_3172" data-name="Rectangle 3172" width="4.534" height="4.534" transform="translate(25.935 21.829) rotate(-45)" fill="#9f0d1b"></rect><rect id="Rectangle_3173" data-name="Rectangle 3173" width="4.534" height="4.534" transform="matrix(0.707, -0.707, 0.707, 0.707, 22.728, 25.035)" fill="#e41d1a"></rect><rect id="Rectangle_3174" data-name="Rectangle 3174" width="4.534" height="4.534" transform="translate(19.523 28.241) rotate(-45)" fill="#780b15"></rect><rect id="Rectangle_3175" data-name="Rectangle 3175" width="4.534" height="4.534" transform="translate(16.317 31.447) rotate(-45)" fill="#e5181a"></rect><rect id="Rectangle_3176" data-name="Rectangle 3176" width="4.534" height="4.534" transform="matrix(0.707, -0.707, 0.707, 0.707, 13.111, 34.653)" fill="#e93b18"></rect><path id="Path_6951" data-name="Path 6951" d="M42.689,51.131l.226-.226L39.71,47.7,36.5,50.905l.226.226Z" transform="translate(-26.599 -13.046)" fill="#ed5116"></path><path id="Path_6952" data-name="Path 6952" d="M36.7,51.574l-.226-.226-.227.226Z" transform="translate(-26.567 -13.489)" fill="#eb4e16"></path><path id="Path_6953" data-name="Path 6953" d="M65.481,15.085l-.228-.228-3.2,3.207,3.2,3.2.228-.228Z" transform="translate(-29.701 -9.057)" fill="#4a1e6c"></path><rect id="Rectangle_3177" data-name="Rectangle 3177" width="4.533" height="4.533" transform="translate(29.141 12.212) rotate(-45.008)" fill="#651a6c"></rect><rect id="Rectangle_3178" data-name="Rectangle 3178" width="4.534" height="4.534" transform="translate(25.934 15.418) rotate(-45.008)" fill="#4e060c"></rect><rect id="Rectangle_3179" data-name="Rectangle 3179" width="4.534" height="4.534" transform="matrix(0.707, -0.707, 0.707, 0.707, 22.728, 18.623)" fill="#910d19"></rect><rect id="Rectangle_3180" data-name="Rectangle 3180" width="4.533" height="4.533" transform="translate(19.523 21.829) rotate(-45)" fill="#4e060c"></rect><rect id="Rectangle_3181" data-name="Rectangle 3181" width="4.534" height="4.534" transform="translate(16.317 25.035) rotate(-45.008)" fill="#ff5226"></rect><rect id="Rectangle_3182" data-name="Rectangle 3182" width="4.534" height="4.534" transform="matrix(0.707, -0.707, 0.707, 0.707, 13.111, 28.241)" fill="#c0051d"></rect><rect id="Rectangle_3183" data-name="Rectangle 3183" width="4.533" height="4.533" transform="translate(9.906 31.447) rotate(-45)" fill="#ff5226"></rect><rect id="Rectangle_3184" data-name="Rectangle 3184" width="4.534" height="4.534" transform="translate(6.7 34.653) rotate(-45.008)" fill="#c9291b"></rect><path id="Path_6954" data-name="Path 6954" d="M35.391,51.131l.227-.226L32.411,47.7l-3.206,3.207.227.226Z" transform="translate(-25.712 -13.046)" fill="#ef6412"></path><rect id="Rectangle_3185" data-name="Rectangle 3185" width="4.534" height="4.534" transform="translate(29.14 5.801) rotate(-45.008)" fill="#31216c"></rect><rect id="Rectangle_3186" data-name="Rectangle 3186" width="4.534" height="4.534" transform="translate(25.935 9.006) rotate(-45)" fill="#4a1e6c"></rect><rect id="Rectangle_3187" data-name="Rectangle 3187" width="4.534" height="4.534" transform="matrix(0.707, -0.707, 0.707, 0.707, 22.728, 12.211)" fill="#910d19"></rect><rect id="Rectangle_3188" data-name="Rectangle 3188" width="4.534" height="4.534" transform="translate(19.523 15.418) rotate(-45.008)" fill="#4e060c"></rect><rect id="Rectangle_3189" data-name="Rectangle 3189" width="4.534" height="4.534" transform="translate(16.317 18.623) rotate(-44.992)" fill="#910d19"></rect><rect id="Rectangle_3190" data-name="Rectangle 3190" width="4.534" height="4.534" transform="matrix(0.707, -0.707, 0.707, 0.707, 13.111, 21.829)" fill="#c7181c"></rect><rect id="Rectangle_3191" data-name="Rectangle 3191" width="4.534" height="4.534" transform="translate(9.905 25.035) rotate(-45.008)" fill="#e63826"></rect><rect id="Rectangle_3192" data-name="Rectangle 3192" width="4.534" height="4.534" transform="translate(6.7 28.241) rotate(-45)" fill="#e64423"></rect><rect id="Rectangle_3193" data-name="Rectangle 3193" width="4.533" height="4.533" transform="translate(3.494 31.447) rotate(-45)" fill="#e3001b"></rect><rect id="Rectangle_3194" data-name="Rectangle 3194" width="4.534" height="4.534" transform="matrix(0.707, -0.707, 0.707, 0.707, 0.288, 34.653)" fill="#f67d0f"></rect><rect id="Rectangle_3195" data-name="Rectangle 3195" width="4.534" height="4.534" transform="translate(25.935 2.594) rotate(-45)" fill="#1f236e"></rect><rect id="Rectangle_3196" data-name="Rectangle 3196" width="4.534" height="4.534" transform="matrix(0.707, -0.707, 0.707, 0.707, 22.728, 5.8)" fill="#31216d"></rect><rect id="Rectangle_3197" data-name="Rectangle 3197" width="4.534" height="4.534" transform="translate(19.523 9.006) rotate(-45)" fill="#4e060c"></rect><rect id="Rectangle_3198" data-name="Rectangle 3198" width="4.534" height="4.534" transform="translate(16.317 12.212) rotate(-45)" fill="#780b15"></rect><rect id="Rectangle_3199" data-name="Rectangle 3199" width="4.534" height="4.534" transform="matrix(0.707, -0.707, 0.707, 0.707, 13.111, 15.417)" fill="#d2171b"></rect><rect id="Rectangle_3200" data-name="Rectangle 3200" width="4.534" height="4.534" transform="translate(9.905 18.623) rotate(-45)" fill="#ff5226"></rect><rect id="Rectangle_3201" data-name="Rectangle 3201" width="4.533" height="4.533" transform="translate(6.7 21.829) rotate(-45)" fill="#c5121e"></rect><rect id="Rectangle_3202" data-name="Rectangle 3202" width="4.534" height="4.534" transform="translate(3.494 25.035) rotate(-45.008)" fill="#ff5226"></rect><rect id="Rectangle_3203" data-name="Rectangle 3203" width="4.534" height="4.534" transform="translate(0.288 28.241) rotate(-45)" fill="#d6001c"></rect><rect id="Rectangle_3204" data-name="Rectangle 3204" width="4.533" height="4.533" transform="translate(-2.918 31.447) rotate(-45)" fill="#f4a000"></rect><rect id="Rectangle_3205" data-name="Rectangle 3205" width="4.534" height="4.534" transform="matrix(0.707, -0.707, 0.707, 0.707, 22.728, -0.612)" fill="#12246d"></rect><rect id="Rectangle_3206" data-name="Rectangle 3206" width="4.534" height="4.534" transform="translate(19.523 2.594) rotate(-45)" fill="#182370"></rect><rect id="Rectangle_3207" data-name="Rectangle 3207" width="4.534" height="4.534" transform="translate(16.317 5.8) rotate(-45)" fill="#780b15"></rect><rect id="Rectangle_3208" data-name="Rectangle 3208" width="4.534" height="4.534" transform="matrix(0.707, -0.707, 0.707, 0.707, 13.111, 9.005)" fill="#4e060c"></rect><rect id="Rectangle_3209" data-name="Rectangle 3209" width="4.534" height="4.534" transform="translate(9.905 12.212) rotate(-45)" fill="#aa0b1c"></rect><rect id="Rectangle_3210" data-name="Rectangle 3210" width="4.534" height="4.534" transform="translate(6.7 15.418) rotate(-45.008)" fill="#e10c1b"></rect><rect id="Rectangle_3211" data-name="Rectangle 3211" width="4.534" height="4.534" transform="translate(3.494 18.623) rotate(-44.992)" fill="#ff5226"></rect><path id="Path_6955" data-name="Path 6955" d="M28.863,29.454,26.385,31.93v1.458l2.477,2.477,3.206-3.206Z" transform="translate(-25.369 -10.83)" fill="#e4121a"></path><path id="Path_6956" data-name="Path 6956" d="M25.842,33.932v1.532h-2.99l-.944.945,3.206,3.206,3.206-3.206Z" transform="translate(-24.826 -11.374)" fill="#c0221c"></path><rect id="Rectangle_3212" data-name="Rectangle 3212" width="4.534" height="4.534" transform="translate(-6.124 28.241) rotate(-45)" fill="#fdcf00"></rect><path id="Path_6957" data-name="Path 6957" d="M28.093,51.131l.226-.226-3.2-3.207-3.206,3.207.226.226Z" transform="translate(-24.826 -13.046)" fill="#f67d0f"></path><rect id="Rectangle_3213" data-name="Rectangle 3213" width="4.534" height="4.534" transform="translate(16.317 -0.612) rotate(-45)" fill="#0d2871"></rect><rect id="Rectangle_3214" data-name="Rectangle 3214" width="4.534" height="4.534" transform="matrix(0.707, -0.707, 0.707, 0.707, -6.124, 34.653)" fill="#f4a000"></rect><path id="Path_6958" data-name="Path 6958" d="M20.795,51.131l.226-.226L17.815,47.7l-3.206,3.207.226.226Z" transform="translate(-23.939 -13.046)" fill="#f4a000"></path><rect id="Rectangle_3215" data-name="Rectangle 3215" width="4.534" height="4.534" transform="matrix(0.707, -0.707, 0.707, 0.707, 13.111, 2.594)" fill="#e3001b"></rect><rect id="Rectangle_3216" data-name="Rectangle 3216" width="4.533" height="4.533" transform="translate(-9.33 31.447) rotate(-45)" fill="#eec900"></rect><path id="Path_6959" data-name="Path 6959" d="M14.578,44.05l-.228.228v5.956l.228.228,3.206-3.207Z" transform="translate(-23.908 -12.603)" fill="#eec900"></path><rect id="Rectangle_3217" data-name="Rectangle 3217" width="4.534" height="4.534" transform="translate(9.905 5.8) rotate(-45)" fill="#88111d"></rect><path id="Path_6960" data-name="Path 6960" d="M14.578,36.751l-.228.228v5.956l.228.228,3.206-3.206Z" transform="translate(-23.908 -11.716)" fill="#fd9b00"></path><rect id="Rectangle_3218" data-name="Rectangle 3218" width="4.534" height="4.534" transform="translate(6.7 9.006) rotate(-45)" fill="#c5091d"></rect><rect id="Rectangle_3219" data-name="Rectangle 3219" width="4.534" height="4.534" transform="translate(3.494 12.212) rotate(-45)" fill="#ff5226"></rect><path id="Path_6961" data-name="Path 6961" d="M28.87,22.155l-2.429,2.429v1.553l2.429,2.43,3.206-3.207Z" transform="translate(-25.376 -9.943)" fill="#c2101d"></path><path id="Path_6962" data-name="Path 6962" d="M26.434,26.689v.618h-.048v4.287l2.477-2.477Z" transform="translate(-25.369 -10.494)" fill="#ff5226"></path><path id="Path_6963" data-name="Path 6963" d="M20.483,30.57l-2.224,2.224,2.224,2.224Z" transform="translate(-24.382 -10.966)" fill="#ffe900"></path><path id="Path_6964" data-name="Path 6964" d="M20.832,35.676l.945.945.944-.945Z" transform="translate(-24.695 -11.586)" fill="#ffe900"></path><path id="Path_6965" data-name="Path 6965" d="M20.04,35.363v-.036L17.815,33.1,14.61,36.308l3.206,3.206,3.206-3.206-.945-.945Z" transform="translate(-23.939 -11.273)" fill="#ffc300"></path><path id="Path_6966" data-name="Path 6966" d="M22.1,51.574l-.226-.226-.227.226Z" transform="translate(-24.794 -13.489)" fill="#f67d0f"></path><path id="Path_6967" data-name="Path 6967" d="M14.8,51.574l-.226-.226-.227.226Z" transform="translate(-23.908 -13.489)" fill="#f4a000"></path><path id="Path_6968" data-name="Path 6968" d="M14.352,51.543l.226-.226-.228-.228v.454Z" transform="translate(-23.908 -13.458)" fill="#eec900"></path><path id="Path_6969" data-name="Path 6969" d="M14.35,43.791v.455l.228-.228Z" transform="translate(-23.908 -12.571)" fill="#b7ca1d"></path><rect id="Rectangle_3220" data-name="Rectangle 3220" width="4.534" height="4.534" transform="translate(9.905 -0.612) rotate(-45)" fill="#004291"></rect><rect id="Rectangle_3221" data-name="Rectangle 3221" width="4.534" height="4.534" transform="translate(6.7 2.594) rotate(-45)" fill="#4e060c"></rect><rect id="Rectangle_3222" data-name="Rectangle 3222" width="4.534" height="4.534" transform="translate(3.494 5.8) rotate(-45)" fill="#8f0d19"></rect><path id="Path_6970" data-name="Path 6970" d="M28.87,14.857l-2.429,2.429V18.84l2.429,2.428,3.206-3.206Z" transform="translate(-25.376 -9.057)" fill="#d10a1c"></path><path id="Path_6971" data-name="Path 6971" d="M26.441,19.391v4.857L28.87,21.82Z" transform="translate(-25.376 -9.608)" fill="#e50a1a"></path><path id="Path_6972" data-name="Path 6972" d="M20.387,26.905V23.382L18.258,25.51l2.225,2.224v-.829Z" transform="translate(-24.382 -10.092)" fill="#fd9b00"></path><path id="Path_6973" data-name="Path 6973" d="M20.04,28.029,17.815,25.8,14.61,29.01l3.206,3.2,2.224-2.224Z" transform="translate(-23.939 -10.387)" fill="#ffc700"></path><path id="Path_6974" data-name="Path 6974" d="M14.578,29.454l-.228.228v5.956l.228.228,3.206-3.206Z" transform="translate(-23.908 -10.83)" fill="#ffe900"></path><rect id="Rectangle_3223" data-name="Rectangle 3223" width="4.534" height="4.534" transform="translate(3.494 -0.612) rotate(-45)" fill="#9f0d1b"></rect><path id="Path_6975" data-name="Path 6975" d="M28.87,7.559,26.441,9.988v1.553l2.429,2.429,3.206-3.206Z" transform="translate(-25.376 -8.17)" fill="#88111d"></path><path id="Path_6976" data-name="Path 6976" d="M26.441,12.092V16.95l2.429-2.429Z" transform="translate(-25.376 -8.721)" fill="#ff5226"></path><path id="Path_6977" data-name="Path 6977" d="M20.387,16.084l-2.129,2.129,2.129,2.128Z" transform="translate(-24.382 -9.206)" fill="#78b52f"></path><path id="Path_6978" data-name="Path 6978" d="M19.943,20.634l-2.129-2.128-3.206,3.2,3.206,3.207,2.129-2.129Z" transform="translate(-23.939 -9.5)" fill="#ffe335"></path><path id="Path_6979" data-name="Path 6979" d="M14.578,22.155l-.228.228v5.956l.228.228,3.206-3.207Z" transform="translate(-23.908 -9.943)" fill="#ffe609"></path><path id="Path_6980" data-name="Path 6980" d="M14.35,29.194v.456l.228-.228Z" transform="translate(-23.908 -10.798)" fill="#9ac125"></path><path id="Path_6981" data-name="Path 6981" d="M26.441,4.794V9.652L28.87,7.223Z" transform="translate(-25.376 -7.835)" fill="#780b15"></path><path id="Path_6982" data-name="Path 6982" d="M20.387,8.785l-2.129,2.128,2.129,2.129Z" transform="translate(-24.382 -8.319)" fill="#21957b"></path><path id="Path_6983" data-name="Path 6983" d="M19.943,13.336l-2.129-2.129-3.206,3.207,3.206,3.206,2.129-2.129Z" transform="translate(-23.939 -8.614)" fill="#8fbc2a"></path><path id="Path_6984" data-name="Path 6984" d="M14.578,14.857l-.228.228v5.956l.228.228,3.206-3.206Z" transform="translate(-23.908 -9.057)" fill="#b8ca1b"></path><path id="Path_6985" data-name="Path 6985" d="M14.35,21.9v.456l.228-.228Z" transform="translate(-23.908 -9.912)" fill="#b8ca1b"></path><path id="Path_6986" data-name="Path 6986" d="M19.944,6.038,17.816,3.91,14.61,7.116l3.206,3.206,2.128-2.128Z" transform="translate(-23.939 -7.727)" fill="#21957b"></path><path id="Path_6987" data-name="Path 6987" d="M14.578,7.559l-.228.228v5.955l.228.228,3.206-3.206Z" transform="translate(-23.908 -8.17)" fill="#a6c523"></path><path id="Path_6988" data-name="Path 6988" d="M14.35,14.6v.457l.228-.228Z" transform="translate(-23.908 -9.025)" fill="#b8ca1b"></path><path id="Path_6989" data-name="Path 6989" d="M29.4,51.574l-.226-.226-.227.226Z" transform="translate(-25.681 -13.489)" fill="#ef6412"></path><path id="Path_6990" data-name="Path 6990" d="M14.35,36.493v.456l.228-.228Z" transform="translate(-23.908 -11.685)" fill="#b7ca1d"></path><path id="Path_6991" data-name="Path 6991" d="M65.923,51.539v-.481l-.241.241.239.24Z" transform="translate(-30.143 -13.454)" fill="#ca005d"></path><path id="Path_6992" data-name="Path 6992" d="M65.888,51.572l-.239-.24-.24.24Z" transform="translate(-30.109 -13.487)" fill="#da001f"></path><path id="Path_6993" data-name="Path 6993" d="M65.923,43.76,65.682,44l.241.241Z" transform="translate(-30.143 -12.568)" fill="#ca005d"></path><path id="Path_6994" data-name="Path 6994" d="M65.479,44.275l-.241-.241L62.032,47.24l3.207,3.206.241-.241Z" transform="translate(-29.699 -12.601)" fill="#d3004c"></path><path id="Path_6995" data-name="Path 6995" d="M64.555,51.129l.24-.24-3.207-3.206-3.2,3.206.239.24Z" transform="translate(-29.256 -13.044)" fill="#da001f"></path><path id="Path_6996" data-name="Path 6996" d="M58.59,51.572l-.239-.24-.24.24Z" transform="translate(-29.223 -13.487)" fill="#da001f"></path><path id="Path_6997" data-name="Path 6997" d="M65.923,36.462l-.241.242.241.241Z" transform="translate(-30.143 -11.681)" fill="#ca005d"></path><path id="Path_6998" data-name="Path 6998" d="M65.479,36.978l-.241-.242-3.207,3.206,3.207,3.206.241-.241Z" transform="translate(-29.699 -11.715)" fill="#d3004c"></path><rect id="Rectangle_3224" data-name="Rectangle 3224" width="4.534" height="4.534" transform="translate(29.127 31.433) rotate(-45)" fill="#ca005d"></rect><rect id="Rectangle_3225" data-name="Rectangle 3225" width="4.534" height="4.534" transform="translate(25.922 34.64) rotate(-45)" fill="#da001f"></rect><path id="Path_6999" data-name="Path 6999" d="M57.257,51.129l.24-.24-3.206-3.206-3.207,3.206.24.24Z" transform="translate(-28.37 -13.044)" fill="#da001f"></path><path id="Path_7000" data-name="Path 7000" d="M51.292,51.572l-.24-.24-.239.24Z" transform="translate(-28.337 -13.487)" fill="#da001f"></path><path id="Path_7001" data-name="Path 7001" d="M65.925,14.6l-.228.228.228.228Z" transform="translate(-30.144 -9.025)" fill="#1f236e"></path><path id="Path_7002" data-name="Path 7002" d="M65.481,7.787l-.228-.228-3.2,3.206,3.2,3.206.228-.228Z" transform="translate(-29.701 -8.17)" fill="#1f236e"></path><rect id="Rectangle_3226" data-name="Rectangle 3226" width="4.534" height="4.534" transform="translate(29.141 -0.612) rotate(-45)" fill="#1f236e"></rect></g><g id="Group_11267" data-name="Group 11267" transform="translate(38.332 4.7)" clip-path="url(#clip-path-2)"><path id="Path_7005" data-name="Path 7005" d="M108.984,31.679l-.228.228.228.229Z" transform="translate(-73.707 -15.8)" fill="#72c6ca"></path><path id="Path_7006" data-name="Path 7006" d="M108.539,32.169l-.228-.229-3.22,3.222,3.22,3.22.228-.229Z" transform="translate(-73.262 -15.832)" fill="#72c6ca"></path><rect id="Rectangle_3230" data-name="Rectangle 3230" width="4.553" height="4.553" transform="matrix(0.707, -0.707, 0.707, 0.707, 28.609, 22.549)" fill="#72c6ca"></rect><rect id="Rectangle_3231" data-name="Rectangle 3231" width="4.553" height="4.553" transform="matrix(0.707, -0.707, 0.707, 0.707, 25.39, 25.768)" fill="#72c6ca"></rect><rect id="Rectangle_3232" data-name="Rectangle 3232" width="4.553" height="4.553" transform="matrix(0.707, -0.707, 0.707, 0.707, 22.17, 28.987)" fill="#72c6ca"></rect><rect id="Rectangle_3233" data-name="Rectangle 3233" width="4.553" height="4.553" transform="matrix(0.707, -0.707, 0.707, 0.707, 18.951, 32.207)" fill="#72c6ca"></rect><path id="Path_7007" data-name="Path 7007" d="M92.979,53.711l.228-.227-3.22-3.219-3.22,3.219.228.227Z" transform="translate(-71.036 -18.058)" fill="#72c6ca"></path><path id="Path_7008" data-name="Path 7008" d="M86.963,54.156l-.228-.227-.227.227Z" transform="translate(-71.005 -18.503)" fill="#72c6ca"></path><path id="Path_7009" data-name="Path 7009" d="M108.984,24.35l-.228.228.228.229Z" transform="translate(-73.707 -14.91)" fill="#72c6ca"></path><path id="Path_7010" data-name="Path 7010" d="M108.539,24.84l-.228-.228-3.22,3.219,3.22,3.22.228-.229Z" transform="translate(-73.262 -14.942)" fill="#72c6ca"></path><rect id="Rectangle_3234" data-name="Rectangle 3234" width="4.554" height="4.554" transform="matrix(0.707, -0.707, 0.707, 0.707, 28.609, 16.109)" fill="#72c6ca"></rect><rect id="Rectangle_3235" data-name="Rectangle 3235" width="4.554" height="4.554" transform="matrix(0.707, -0.707, 0.707, 0.707, 25.389, 19.329)" fill="#72c6ca"></rect><rect id="Rectangle_3236" data-name="Rectangle 3236" width="4.553" height="4.553" transform="matrix(0.707, -0.707, 0.707, 0.707, 22.17, 22.549)" fill="#72c6ca"></rect><rect id="Rectangle_3237" data-name="Rectangle 3237" width="4.553" height="4.553" transform="matrix(0.707, -0.707, 0.707, 0.707, 18.951, 25.768)" fill="#72c6ca"></rect><rect id="Rectangle_3238" data-name="Rectangle 3238" width="4.553" height="4.553" transform="matrix(0.707, -0.707, 0.707, 0.707, 15.731, 28.987)" fill="#72c6ca"></rect><rect id="Rectangle_3239" data-name="Rectangle 3239" width="4.553" height="4.553" transform="matrix(0.707, -0.707, 0.707, 0.707, 12.512, 32.207)" fill="#72c6ca"></rect><path id="Path_7011" data-name="Path 7011" d="M85.651,53.711l.227-.227-3.219-3.219-3.22,3.219.227.227Z" transform="translate(-70.146 -18.058)" fill="#72c6ca"></path><path id="Path_7012" data-name="Path 7012" d="M79.634,54.156l-.227-.227-.228.227Z" transform="translate(-70.114 -18.503)" fill="#72c6ca"></path><path id="Path_7013" data-name="Path 7013" d="M108.539,17.51l-.228-.229-3.22,3.22,3.22,3.22.228-.229Z" transform="translate(-73.262 -14.052)" fill="#72c6ca"></path><rect id="Rectangle_3240" data-name="Rectangle 3240" width="4.553" height="4.553" transform="matrix(0.707, -0.707, 0.707, 0.707, 28.609, 9.669)" fill="#72c6ca"></rect><rect id="Rectangle_3241" data-name="Rectangle 3241" width="4.553" height="4.553" transform="matrix(0.707, -0.707, 0.707, 0.707, 25.39, 12.888)" fill="#1c7d7b"></rect><rect id="Rectangle_3242" data-name="Rectangle 3242" width="4.554" height="4.554" transform="matrix(0.707, -0.707, 0.707, 0.707, 22.17, 16.109)" fill="#31b4b5"></rect><rect id="Rectangle_3243" data-name="Rectangle 3243" width="4.554" height="4.554" transform="matrix(0.707, -0.707, 0.707, 0.707, 18.95, 19.329)" fill="#55afaf"></rect><rect id="Rectangle_3244" data-name="Rectangle 3244" width="4.553" height="4.553" transform="matrix(0.707, -0.707, 0.707, 0.707, 15.731, 22.548)" fill="#72c6ca"></rect><rect id="Rectangle_3245" data-name="Rectangle 3245" width="4.553" height="4.553" transform="translate(12.512 25.768) rotate(-45.008)" fill="#61c1c3"></rect><rect id="Rectangle_3246" data-name="Rectangle 3246" width="4.553" height="4.553" transform="translate(9.293 28.988) rotate(-45.008)" fill="#72c6ca"></rect><rect id="Rectangle_3247" data-name="Rectangle 3247" width="4.553" height="4.553" transform="matrix(0.707, -0.707, 0.707, 0.707, 6.074, 32.207)" fill="#72c6ca"></rect><path id="Path_7014" data-name="Path 7014" d="M78.321,53.711l.228-.227-3.22-3.219L72.11,53.484l.227.227Z" transform="translate(-69.256 -18.058)" fill="#72c6ca"></path><rect id="Rectangle_3248" data-name="Rectangle 3248" width="4.553" height="4.553" transform="matrix(0.707, -0.707, 0.707, 0.707, 28.609, 3.23)" fill="#72c6ca"></rect><rect id="Rectangle_3249" data-name="Rectangle 3249" width="4.553" height="4.553" transform="matrix(0.707, -0.707, 0.707, 0.707, 25.39, 6.449)" fill="#72c6ca"></rect><rect id="Rectangle_3250" data-name="Rectangle 3250" width="4.553" height="4.553" transform="matrix(0.707, -0.707, 0.707, 0.707, 22.17, 9.669)" fill="#23b0ae"></rect><rect id="Rectangle_3251" data-name="Rectangle 3251" width="4.553" height="4.553" transform="matrix(0.707, -0.707, 0.707, 0.707, 18.951, 12.888)" fill="#72c6ca"></rect><rect id="Rectangle_3252" data-name="Rectangle 3252" width="4.554" height="4.554" transform="matrix(0.707, -0.707, 0.707, 0.707, 15.731, 16.109)" fill="#53b5b4"></rect><rect id="Rectangle_3253" data-name="Rectangle 3253" width="4.554" height="4.554" transform="translate(12.511 19.329) rotate(-45.008)" fill="#8bd0ce"></rect><rect id="Rectangle_3254" data-name="Rectangle 3254" width="4.553" height="4.553" transform="translate(9.293 22.549) rotate(-45)" fill="#b1e0e7"></rect><rect id="Rectangle_3255" data-name="Rectangle 3255" width="4.553" height="4.553" transform="matrix(0.707, -0.707, 0.707, 0.707, 6.074, 25.768)" fill="#9dd7d8"></rect><rect id="Rectangle_3256" data-name="Rectangle 3256" width="4.553" height="4.553" transform="translate(2.854 28.988) rotate(-45.008)" fill="#72c6ca"></rect><rect id="Rectangle_3257" data-name="Rectangle 3257" width="4.553" height="4.553" transform="matrix(0.707, -0.707, 0.707, 0.707, -0.366, 32.207)" fill="#72c6ca"></rect><path id="Path_7015" data-name="Path 7015" d="M101.02,9.953l-2.935,2.935v.568l2.935,2.935,3.22-3.22Z" transform="translate(-72.411 -13.161)" fill="#72c6ca"></path><path id="Path_7016" data-name="Path 7016" d="M97.6,13.941v.107h-.676L94.1,16.876l3.22,3.22,3.219-3.22Z" transform="translate(-71.926 -13.646)" fill="#72c6ca"></path><rect id="Rectangle_3258" data-name="Rectangle 3258" width="4.553" height="4.553" transform="matrix(0.707, -0.707, 0.707, 0.707, 18.951, 6.449)" fill="#2ab3b4"></rect><rect id="Rectangle_3259" data-name="Rectangle 3259" width="4.553" height="4.553" transform="matrix(0.707, -0.707, 0.707, 0.707, 15.731, 9.669)" fill="#46b0ad"></rect><rect id="Rectangle_3260" data-name="Rectangle 3260" width="4.553" height="4.553" transform="matrix(0.707, -0.707, 0.707, 0.707, 12.512, 12.888)" fill="#72c6ca"></rect><rect id="Rectangle_3261" data-name="Rectangle 3261" width="4.554" height="4.554" transform="translate(9.292 16.11) rotate(-45.023)" fill="#72c6ca"></rect><rect id="Rectangle_3262" data-name="Rectangle 3262" width="4.554" height="4.554" transform="matrix(0.707, -0.707, 0.707, 0.707, 6.073, 19.329)" fill="#a9dce1"></rect><rect id="Rectangle_3263" data-name="Rectangle 3263" width="4.553" height="4.553" transform="translate(2.854 22.549) rotate(-45)" fill="#68c2c5"></rect><rect id="Rectangle_3264" data-name="Rectangle 3264" width="4.553" height="4.553" transform="translate(-0.365 25.768) rotate(-45.008)" fill="#72c6ca"></rect><rect id="Rectangle_3265" data-name="Rectangle 3265" width="4.553" height="4.553" transform="matrix(0.707, -0.707, 0.707, 0.707, -3.585, 28.987)" fill="#72c6ca"></rect><path id="Path_7017" data-name="Path 7017" d="M98.765,10.149H97.7v2.294l2.935-2.936L97.421,6.288,94.956,8.752h3.808Z" transform="translate(-72.031 -12.716)" fill="#72c6ca"></path><path id="Path_7018" data-name="Path 7018" d="M90.878,14.063l2.828,2.828,2.828-2.828Z" transform="translate(-71.535 -13.661)" fill="#72c6ca"></path><path id="Path_7019" data-name="Path 7019" d="M89.595,14.063l-2.828,2.828,3.22,3.219,3.22-3.219-2.828-2.828Z" transform="translate(-71.036 -13.661)" fill="#148b89"></path><rect id="Rectangle_3266" data-name="Rectangle 3266" width="4.553" height="4.553" transform="translate(12.512 6.45) rotate(-45.008)" fill="#2db2b0"></rect><rect id="Rectangle_3267" data-name="Rectangle 3267" width="4.553" height="4.553" transform="translate(9.293 9.669) rotate(-45.008)" fill="#46b7b5"></rect><rect id="Rectangle_3268" data-name="Rectangle 3268" width="4.553" height="4.553" transform="matrix(0.707, -0.707, 0.707, 0.707, 6.074, 12.888)" fill="#61c0c1"></rect><rect id="Rectangle_3269" data-name="Rectangle 3269" width="4.554" height="4.554" transform="translate(2.854 16.109) rotate(-45.023)" fill="#51bcbc"></rect><rect id="Rectangle_3270" data-name="Rectangle 3270" width="4.554" height="4.554" transform="matrix(0.707, -0.707, 0.707, 0.707, -0.366, 19.329)" fill="#92d2d2"></rect><rect id="Rectangle_3271" data-name="Rectangle 3271" width="4.553" height="4.554" transform="matrix(0.707, -0.707, 0.707, 0.707, -3.585, 22.548)" fill="#72c6ca"></rect><rect id="Rectangle_3272" data-name="Rectangle 3272" width="4.553" height="4.553" transform="matrix(0.707, -0.707, 0.707, 0.707, -6.804, 25.768)" fill="#72c6ca"></rect><path id="Path_7020" data-name="Path 7020" d="M94.407,8.307l2.463-2.463-3.219-3.22-3.22,3.22L92.9,8.307Z" transform="translate(-71.481 -12.271)" fill="#72c6ca"></path><path id="Path_7021" data-name="Path 7021" d="M70.992,53.711l.228-.227L68,50.266l-3.219,3.219.227.227Z" transform="translate(-68.365 -18.058)" fill="#72c6ca"></path><path id="Path_7022" data-name="Path 7022" d="M92.555,8.752,90.092,6.288,87.627,8.752Z" transform="translate(-71.14 -12.716)" fill="#72c6ca"></path><rect id="Rectangle_3273" data-name="Rectangle 3273" width="4.553" height="4.553" transform="matrix(0.707, -0.707, 0.707, 0.707, -6.805, 32.207)" fill="#72c6ca"></rect><path id="Path_7023" data-name="Path 7023" d="M63.663,53.711l.228-.227-3.22-3.219-3.22,3.219.228.227Z" transform="translate(-67.475 -18.058)" fill="#72c6ca"></path><path id="Path_7024" data-name="Path 7024" d="M83.549,14.063l2.827,2.828L89.2,14.063Z" transform="translate(-70.645 -13.661)" fill="#72c6ca"></path><rect id="Rectangle_3274" data-name="Rectangle 3274" width="4.553" height="4.553" transform="matrix(0.707, -0.707, 0.707, 0.707, -10.024, 28.988)" fill="#72c6ca"></rect><path id="Path_7025" data-name="Path 7025" d="M57.419,46.6l-.228.228V52.81l.228.229,3.219-3.219Z" transform="translate(-67.443 -17.613)" fill="#b88557"></path><path id="Path_7026" data-name="Path 7026" d="M82.267,14.063l-2.828,2.828,3.22,3.219,3.219-3.219-2.828-2.828Z" transform="translate(-70.146 -13.661)" fill="#178583"></path><path id="Path_7027" data-name="Path 7027" d="M57.419,39.272l-.228.228v5.982l.228.228,3.219-3.22Z" transform="translate(-67.443 -16.723)" fill="#b88557"></path><rect id="Rectangle_3275" data-name="Rectangle 3275" width="4.553" height="4.553" transform="matrix(0.707, -0.707, 0.707, 0.707, 6.074, 6.449)" fill="#72c6ca"></rect><rect id="Rectangle_3276" data-name="Rectangle 3276" width="4.553" height="4.553" transform="translate(2.854 9.669) rotate(-45.008)" fill="#5bbfc0"></rect><rect id="Rectangle_3277" data-name="Rectangle 3277" width="4.553" height="4.553" transform="matrix(0.707, -0.707, 0.707, 0.707, -0.366, 12.888)" fill="#8bd0d0"></rect><rect id="Rectangle_3278" data-name="Rectangle 3278" width="4.554" height="4.554" transform="matrix(0.707, -0.707, 0.707, 0.707, -3.585, 16.109)" fill="#adddde"></rect><rect id="Rectangle_3279" data-name="Rectangle 3279" width="4.554" height="4.554" transform="matrix(0.707, -0.707, 0.707, 0.707, -6.805, 19.328)" fill="#72c6ca"></rect><rect id="Rectangle_3280" data-name="Rectangle 3280" width="4.554" height="4.553" transform="matrix(0.707, -0.707, 0.707, 0.707, -10.024, 22.549)" fill="#72c6ca"></rect><path id="Path_7028" data-name="Path 7028" d="M87.078,8.307l2.463-2.463-3.219-3.22L83.1,5.843l2.463,2.463Z" transform="translate(-70.591 -12.271)" fill="#72c6ca"></path><path id="Path_7029" data-name="Path 7029" d="M64.976,54.156l-.227-.227-.228.227Z" transform="translate(-68.334 -18.503)" fill="#72c6ca"></path><path id="Path_7030" data-name="Path 7030" d="M57.647,54.156l-.228-.227-.227.227Z" transform="translate(-67.444 -18.503)" fill="#b88557"></path><path id="Path_7031" data-name="Path 7031" d="M57.193,54.125l.227-.227-.228-.228v.455Z" transform="translate(-67.443 -18.471)" fill="#b88557"></path><path id="Path_7032" data-name="Path 7032" d="M57.191,46.341V46.8l.228-.228Z" transform="translate(-67.444 -17.581)" fill="#b88557"></path><path id="Path_7033" data-name="Path 7033" d="M85.226,8.752,82.763,6.288,80.3,8.752Z" transform="translate(-70.25 -12.716)" fill="#72c6ca"></path><path id="Path_7034" data-name="Path 7034" d="M80.195,13.652v-2.41l-.559-.56H78.352l-2.578,2.578,3.219,3.22,2.828-2.828Z" transform="translate(-69.701 -13.25)" fill="#72c6ca"></path><rect id="Rectangle_3281" data-name="Rectangle 3281" width="4.553" height="4.553" transform="translate(2.854 3.23) rotate(-45.008)" fill="#4fb6b5"></rect><rect id="Rectangle_3282" data-name="Rectangle 3282" width="4.553" height="4.553" transform="matrix(0.707, -0.707, 0.707, 0.707, -0.366, 6.449)" fill="#4cbbbc"></rect><rect id="Rectangle_3283" data-name="Rectangle 3283" width="4.553" height="4.553" transform="matrix(0.707, -0.707, 0.707, 0.707, -3.585, 9.669)" fill="#8fd1ce"></rect><rect id="Rectangle_3284" data-name="Rectangle 3284" width="4.553" height="4.553" transform="matrix(0.707, -0.707, 0.707, 0.707, -6.804, 12.888)" fill="#72c6ca"></rect><rect id="Rectangle_3285" data-name="Rectangle 3285" width="4.554" height="4.554" transform="translate(-10.024 16.109) rotate(-45.016)" fill="#72c6ca"></rect><path id="Path_7035" data-name="Path 7035" d="M57.42,31.94l-.228.229v5.983l.228.229,3.22-3.22Z" transform="translate(-67.444 -15.832)" fill="#b88557"></path><path id="Path_7036" data-name="Path 7036" d="M79.749,8.307l2.463-2.463-3.219-3.22-3.22,3.22,2.464,2.463Z" transform="translate(-69.701 -12.271)" fill="#72c6ca"></path><path id="Path_7037" data-name="Path 7037" d="M72.84,10.683l2.578,2.578L78,10.683Z" transform="translate(-69.344 -13.25)" fill="#72c6ca"></path><path id="Path_7038" data-name="Path 7038" d="M77.9,8.752,75.434,6.288,72.97,8.752Z" transform="translate(-69.36 -12.716)" fill="#72c6ca"></path><path id="Path_7039" data-name="Path 7039" d="M71.023,10.683l-2.578,2.578,3.219,3.219,3.22-3.219-2.578-2.578Z" transform="translate(-68.811 -13.25)" fill="#72c6ca"></path><rect id="Rectangle_3286" data-name="Rectangle 3286" width="4.553" height="4.553" transform="matrix(0.707, -0.707, 0.707, 0.707, -3.585, 3.23)" fill="#72c6ca"></rect><rect id="Rectangle_3287" data-name="Rectangle 3287" width="4.553" height="4.553" transform="matrix(0.707, -0.707, 0.707, 0.707, -6.804, 6.449)" fill="#72c6ca"></rect><rect id="Rectangle_3288" data-name="Rectangle 3288" width="4.553" height="4.553" transform="matrix(0.707, -0.707, 0.707, 0.707, -10.024, 9.669)" fill="#72c6ca"></rect><path id="Path_7040" data-name="Path 7040" d="M57.42,24.611l-.228.229v5.98l.228.229,3.22-3.219Z" transform="translate(-67.444 -14.942)" fill="#b88557"></path><path id="Path_7041" data-name="Path 7041" d="M57.191,31.679v.458l.228-.228Z" transform="translate(-67.444 -15.8)" fill="#b88557"></path><path id="Path_7042" data-name="Path 7042" d="M72.421,8.307l2.463-2.463-3.219-3.22-3.22,3.22,2.464,2.463Z" transform="translate(-68.81 -12.271)" fill="#72c6ca"></path><path id="Path_7043" data-name="Path 7043" d="M70.568,8.752,68.1,6.288,65.641,8.752Z" transform="translate(-68.47 -12.716)" fill="#72c6ca"></path><path id="Path_7044" data-name="Path 7044" d="M65.511,10.683l2.578,2.578,2.578-2.578Z" transform="translate(-68.454 -13.25)" fill="#72c6ca"></path><path id="Path_7045" data-name="Path 7045" d="M63.694,10.683l-2.578,2.578,3.22,3.219,3.219-3.219-2.578-2.578Z" transform="translate(-67.92 -13.25)" fill="#72c6ca"></path><rect id="Rectangle_3289" data-name="Rectangle 3289" width="4.553" height="4.553" transform="matrix(0.707, -0.707, 0.707, 0.707, -10.024, 3.23)" fill="#72c6ca"></rect><path id="Path_7046" data-name="Path 7046" d="M57.42,17.282l-.228.229v5.981l.228.228,3.22-3.219Z" transform="translate(-67.444 -14.052)" fill="#b88557"></path><path id="Path_7047" data-name="Path 7047" d="M57.191,24.351v.458l.228-.229Z" transform="translate(-67.444 -14.91)" fill="#b88557"></path><path id="Path_7048" data-name="Path 7048" d="M65.092,8.307l2.463-2.463-3.22-3.219L61.117,5.843,63.58,8.307Z" transform="translate(-67.92 -12.271)" fill="#72c6ca"></path><path id="Path_7049" data-name="Path 7049" d="M63.239,8.752,60.776,6.288,58.313,8.752Z" transform="translate(-67.58 -12.716)" fill="#b88557"></path><path id="Path_7050" data-name="Path 7050" d="M58.182,10.683l2.578,2.578,2.578-2.578Z" transform="translate(-67.564 -13.25)" fill="#b88557"></path><path id="Path_7051" data-name="Path 7051" d="M57.191,10.683v5.568l.229.229,3.219-3.22-2.578-2.578Z" transform="translate(-67.444 -13.25)" fill="#b88557"></path><path id="Path_7052" data-name="Path 7052" d="M57.191,17.021v.459l.229-.229Z" transform="translate(-67.444 -14.02)" fill="#b88557"></path><path id="Path_7053" data-name="Path 7053" d="M58.176,8.307,60.64,5.843,57.42,2.624l-.229.229V8.307Z" transform="translate(-67.443 -12.271)" fill="#b88557"></path><path id="Path_7054" data-name="Path 7054" d="M72.305,54.156l-.227-.227-.228.227Z" transform="translate(-69.224 -18.503)" fill="#72c6ca"></path><path id="Path_7055" data-name="Path 7055" d="M57.191,39.011v.457l.228-.228Z" transform="translate(-67.444 -16.691)" fill="#b88557"></path><path id="Path_7056" data-name="Path 7056" d="M108.982,54.121v-.482l-.242.242.241.24Z" transform="translate(-73.705 -18.468)" fill="#72c6ca"></path><path id="Path_7057" data-name="Path 7057" d="M108.947,54.154l-.241-.24-.24.24Z" transform="translate(-73.672 -18.501)" fill="#72c6ca"></path><path id="Path_7058" data-name="Path 7058" d="M108.982,46.309l-.242.242.242.242Z" transform="translate(-73.705 -17.577)" fill="#72c6ca"></path><path id="Path_7059" data-name="Path 7059" d="M108.537,46.827l-.242-.242-3.22,3.22,3.22,3.219.242-.242Z" transform="translate(-73.26 -17.611)" fill="#72c6ca"></path><path id="Path_7060" data-name="Path 7060" d="M107.609,53.709l.24-.24-3.219-3.22-3.22,3.22.241.24Z" transform="translate(-72.815 -18.056)" fill="#72c6ca"></path><path id="Path_7061" data-name="Path 7061" d="M101.618,54.154l-.241-.24-.24.24Z" transform="translate(-72.782 -18.501)" fill="#72c6ca"></path><path id="Path_7062" data-name="Path 7062" d="M108.982,38.98l-.242.242.242.242Z" transform="translate(-73.705 -16.687)" fill="#72c6ca"></path><path id="Path_7063" data-name="Path 7063" d="M108.537,39.5l-.242-.242-3.22,3.22,3.22,3.22.242-.242Z" transform="translate(-73.26 -16.721)" fill="#72c6ca"></path><rect id="Rectangle_3290" data-name="Rectangle 3290" width="4.553" height="4.553" transform="matrix(0.707, -0.707, 0.707, 0.707, 28.596, 28.974)" fill="#72c6ca"></rect><rect id="Rectangle_3291" data-name="Rectangle 3291" width="4.553" height="4.553" transform="translate(25.376 32.194) rotate(-45.008)" fill="#72c6ca"></rect><path id="Path_7064" data-name="Path 7064" d="M100.28,53.709l.24-.24L97.3,50.25l-3.219,3.22.241.24Z" transform="translate(-71.924 -18.056)" fill="#72c6ca"></path><path id="Path_7065" data-name="Path 7065" d="M94.289,54.154l-.241-.24-.24.24Z" transform="translate(-71.891 -18.501)" fill="#72c6ca"></path><path id="Path_7066" data-name="Path 7066" d="M108.984,17.021l-.228.228.228.229Z" transform="translate(-73.707 -14.02)" fill="#72c6ca"></path><path id="Path_7067" data-name="Path 7067" d="M108.984,9.692l-.228.228.228.229Z" transform="translate(-73.707 -13.13)" fill="#72c6ca"></path><path id="Path_7068" data-name="Path 7068" d="M108.539,10.182l-.228-.228-3.22,3.219,3.22,3.219.228-.228Z" transform="translate(-73.262 -13.161)" fill="#72c6ca"></path><path id="Path_7069" data-name="Path 7069" d="M108.539,2.853l-.228-.228-3.22,3.219,3.22,3.22.228-.229Z" transform="translate(-73.262 -12.271)" fill="#72c6ca"></path><rect id="Rectangle_3292" data-name="Rectangle 3292" width="4.553" height="4.553" transform="matrix(0.707, -0.707, 0.707, 0.707, 28.609, -3.209)" fill="#72c6ca"></rect><rect id="Rectangle_3293" data-name="Rectangle 3293" width="4.553" height="4.553" transform="matrix(0.707, -0.707, 0.707, 0.707, 25.39, -6.428)" fill="#72c6ca"></rect></g><g id="Group_11276" data-name="Group 11276" transform="translate(22.229 4.365)" clip-path="url(#clip-path-3)"><path id="Path_7072" data-name="Path 7072" d="M67.7,4.721l.211.211L64.945,7.894,61.983,4.932l.211-.211Z" transform="translate(-51.923 -12.191)" fill="#be0067"></path><path id="Path_7073" data-name="Path 7073" d="M62.007,9.532h.92l1.609-1.609L61.574,4.961,58.612,7.923l2.962,2.962.433-.433Z" transform="translate(-51.513 -12.22)" fill="#ca005d"></path><rect id="Rectangle_3297" data-name="Rectangle 3297" width="4.188" height="4.188" transform="matrix(0.707, -0.707, 0.707, 0.707, 4.137, -1.336)" fill="#0079a7"></rect><rect id="Rectangle_3298" data-name="Rectangle 3298" width="4.188" height="4.188" transform="matrix(0.707, -0.707, 0.707, 0.707, 1.175, 1.626)" fill="#005284"></rect><rect id="Rectangle_3299" data-name="Rectangle 3299" width="4.188" height="4.188" transform="matrix(0.707, -0.707, 0.707, 0.707, -1.786, 4.587)" fill="#1696c0"></rect><path id="Path_7074" data-name="Path 7074" d="M48.261,18.654l.209-.209,2.962,2.962L48.47,24.369l-.209-.209Z" transform="translate(-50.256 -13.858)" fill="#005284"></path><path id="Path_7075" data-name="Path 7075" d="M48.261,24.95l.209.209-.209.209Z" transform="translate(-50.256 -14.648)" fill="#e42f18"></path><path id="Path_7076" data-name="Path 7076" d="M74.438,4.721l.211.211L71.688,7.894,68.725,4.932l.211-.211Z" transform="translate(-52.742 -12.191)" fill="#86146e"></path><path id="Path_7077" data-name="Path 7077" d="M69.669,9.532l1.609-1.609L68.316,4.961,65.354,7.923l1.609,1.609Z" transform="translate(-52.332 -12.22)" fill="#9e106b"></path><path id="Path_7078" data-name="Path 7078" d="M66.741,9.941,65.132,8.332,63.523,9.941Z" transform="translate(-52.11 -12.63)" fill="#b10062"></path><path id="Path_7079" data-name="Path 7079" d="M64.42,14.14l.821.821.821-.821Z" transform="translate(-52.219 -13.335)" fill="#002237"></path><path id="Path_7080" data-name="Path 7080" d="M62.272,13.844V12.4l-.7-.7-2.962,2.962,2.962,2.962,2.962-2.962-.821-.821Z" transform="translate(-51.513 -13.039)" fill="#002d48"></path><rect id="Rectangle_3300" data-name="Rectangle 3300" width="4.188" height="4.188" transform="matrix(0.707, -0.707, 0.707, 0.707, 4.137, 4.587)" fill="#0072a4"></rect><rect id="Rectangle_3301" data-name="Rectangle 3301" width="4.188" height="4.188" transform="matrix(0.707, -0.707, 0.707, 0.707, 1.175, 7.549)" fill="#006ba1"></rect><rect id="Rectangle_3302" data-name="Rectangle 3302" width="4.188" height="4.188" transform="matrix(0.707, -0.707, 0.707, 0.707, -1.786, 10.511)" fill="#007aab"></rect><path id="Path_7081" data-name="Path 7081" d="M48.261,25.4l.209-.209,2.962,2.962L48.47,31.111l-.209-.208Z" transform="translate(-50.256 -14.677)" fill="#005284"></path><path id="Path_7082" data-name="Path 7082" d="M48.261,31.693l.209.209-.209.209Z" transform="translate(-50.256 -15.467)" fill="#eb4e16"></path><path id="Path_7083" data-name="Path 7083" d="M81.18,4.721l.211.211L78.43,7.894,75.467,4.932l.211-.211Z" transform="translate(-53.561 -12.191)" fill="#4a1e6c"></path><path id="Path_7084" data-name="Path 7084" d="M76.411,9.532,78.02,7.923,75.058,4.961,72.1,7.923l1.609,1.609Z" transform="translate(-53.151 -12.22)" fill="#651a6c"></path><path id="Path_7085" data-name="Path 7085" d="M73.483,9.941,71.874,8.332,70.266,9.941Z" transform="translate(-52.929 -12.63)" fill="#7b166d"></path><path id="Path_7086" data-name="Path 7086" d="M72.712,11.754v2.1H71.163l.821.821L74.9,11.754Z" transform="translate(-53.038 -13.045)" fill="#7b166d"></path><path id="Path_7087" data-name="Path 7087" d="M66.175,14.14l-.821.821,2.962,2.962,2.962-2.962-.821-.821Z" transform="translate(-52.332 -13.335)" fill="#002e4d"></path><rect id="Rectangle_3303" data-name="Rectangle 3303" width="4.188" height="4.188" transform="translate(10.06 4.587) rotate(-44.991)" fill="#003254"></rect><rect id="Rectangle_3304" data-name="Rectangle 3304" width="4.189" height="4.189" transform="matrix(0.707, -0.707, 0.707, 0.707, 7.098, 7.549)" fill="#005284"></rect><rect id="Rectangle_3305" data-name="Rectangle 3305" width="4.188" height="4.188" transform="matrix(0.707, -0.707, 0.707, 0.707, 4.137, 10.511)" fill="#00344d"></rect><rect id="Rectangle_3306" data-name="Rectangle 3306" width="4.188" height="4.188" transform="matrix(0.707, -0.707, 0.707, 0.707, 1.175, 13.472)" fill="#005284"></rect><rect id="Rectangle_3307" data-name="Rectangle 3307" width="4.188" height="4.188" transform="matrix(0.707, -0.707, 0.707, 0.707, -1.786, 16.434)" fill="#0072a1"></rect><path id="Path_7088" data-name="Path 7088" d="M48.261,32.139l.209-.209,2.962,2.962L48.47,37.853l-.209-.208Z" transform="translate(-50.256 -15.496)" fill="#1784b0"></path><path id="Path_7089" data-name="Path 7089" d="M83.153,9.532l1.609-1.609L81.8,4.961,78.839,7.923l1.609,1.609Z" transform="translate(-53.97 -12.22)" fill="#31216c"></path><path id="Path_7090" data-name="Path 7090" d="M80.225,9.941,78.617,8.332,77.007,9.941Z" transform="translate(-53.748 -12.63)" fill="#4a1e6c"></path><path id="Path_7091" data-name="Path 7091" d="M75.519,11.754l2.917,2.917,2.918-2.917Z" transform="translate(-53.567 -13.045)" fill="#4a1e6c"></path><path id="Path_7092" data-name="Path 7092" d="M75.014,11.754,72.1,14.671l2.962,2.962,2.962-2.962L75.1,11.754Z" transform="translate(-53.151 -13.045)" fill="#005284"></path><rect id="Rectangle_3308" data-name="Rectangle 3308" width="4.188" height="4.188" transform="translate(15.984 4.587) rotate(-45)" fill="#003254"></rect><rect id="Rectangle_3309" data-name="Rectangle 3309" width="4.188" height="4.188" transform="translate(13.022 7.549) rotate(-45)" fill="#005284"></rect><rect id="Rectangle_3310" data-name="Rectangle 3310" width="4.188" height="4.188" transform="translate(10.06 10.51) rotate(-44.991)" fill="#00456e"></rect><rect id="Rectangle_3311" data-name="Rectangle 3311" width="4.189" height="4.189" transform="matrix(0.707, -0.707, 0.707, 0.707, 7.098, 13.472)" fill="#005284"></rect><rect id="Rectangle_3312" data-name="Rectangle 3312" width="4.188" height="4.188" transform="matrix(0.707, -0.707, 0.707, 0.707, 4.137, 16.434)" fill="#0f6bac"></rect><rect id="Rectangle_3313" data-name="Rectangle 3313" width="4.188" height="4.188" transform="matrix(0.707, -0.707, 0.707, 0.707, 1.175, 19.396)" fill="#005284"></rect><rect id="Rectangle_3314" data-name="Rectangle 3314" width="4.189" height="4.189" transform="matrix(0.707, -0.707, 0.707, 0.707, -1.787, 22.357)" fill="#3c95b9"></rect><path id="Path_7093" data-name="Path 7093" d="M86.968,9.941,85.359,8.332,83.75,9.941Z" transform="translate(-54.567 -12.63)" fill="#1f236e"></path><path id="Path_7094" data-name="Path 7094" d="M82.261,11.754l2.917,2.917L88.1,11.754Z" transform="translate(-54.386 -13.045)" fill="#1f236e"></path><path id="Path_7095" data-name="Path 7095" d="M81.756,11.754l-2.917,2.917L81.8,17.632l2.962-2.962-2.917-2.917Z" transform="translate(-53.97 -13.045)" fill="#31216d"></path><rect id="Rectangle_3315" data-name="Rectangle 3315" width="4.188" height="4.188" transform="translate(21.907 4.587) rotate(-45)" fill="#372173"></rect><rect id="Rectangle_3316" data-name="Rectangle 3316" width="4.188" height="4.188" transform="translate(18.945 7.549) rotate(-45)" fill="#005284"></rect><rect id="Rectangle_3317" data-name="Rectangle 3317" width="4.188" height="4.188" transform="translate(15.984 10.511) rotate(-45)" fill="#003254"></rect><rect id="Rectangle_3318" data-name="Rectangle 3318" width="4.188" height="4.188" transform="translate(13.022 13.472) rotate(-45)" fill="#005786"></rect><rect id="Rectangle_3319" data-name="Rectangle 3319" width="4.188" height="4.188" transform="translate(10.06 16.433) rotate(-44.991)" fill="#00405a"></rect><rect id="Rectangle_3320" data-name="Rectangle 3320" width="4.189" height="4.189" transform="matrix(0.707, -0.707, 0.707, 0.707, 7.098, 19.396)" fill="#005284"></rect><rect id="Rectangle_3321" data-name="Rectangle 3321" width="4.189" height="4.189" transform="matrix(0.707, -0.707, 0.707, 0.707, 4.137, 22.357)" fill="#008dc1"></rect><path id="Path_7096" data-name="Path 7096" d="M57.031,42.4l.763-.763-2.962-2.962L51.87,41.634l.762.763Z" transform="translate(-50.695 -16.315)" fill="#29b7cf"></path><path id="Path_7097" data-name="Path 7097" d="M88.5,11.754,85.58,14.671l2.962,2.962L91.5,14.671l-2.916-2.917Z" transform="translate(-54.789 -13.045)" fill="#12246d"></path><rect id="Rectangle_3322" data-name="Rectangle 3322" width="4.188" height="4.188" transform="translate(27.83 4.587) rotate(-45)" fill="#182370"></rect><rect id="Rectangle_3323" data-name="Rectangle 3323" width="4.188" height="4.188" transform="translate(24.869 7.549) rotate(-45)" fill="#49257e"></rect><rect id="Rectangle_3324" data-name="Rectangle 3324" width="4.188" height="4.188" transform="translate(21.907 10.511) rotate(-45)" fill="#133a67"></rect><rect id="Rectangle_3325" data-name="Rectangle 3325" width="4.188" height="4.188" transform="translate(18.945 13.472) rotate(-45)" fill="#005284"></rect><rect id="Rectangle_3326" data-name="Rectangle 3326" width="4.188" height="4.188" transform="translate(15.984 16.434) rotate(-45)" fill="#0079b0"></rect><rect id="Rectangle_3327" data-name="Rectangle 3327" width="4.188" height="4.188" transform="translate(13.022 19.396) rotate(-45)" fill="#004665"></rect><rect id="Rectangle_3328" data-name="Rectangle 3328" width="4.189" height="4.189" transform="translate(10.06 22.357) rotate(-44.991)" fill="#0073aa"></rect><path id="Path_7098" data-name="Path 7098" d="M63.773,42.4l.763-.763-2.962-2.962-2.962,2.962.763.763Z" transform="translate(-51.513 -16.315)" fill="#2583aa"></path><path id="Path_7099" data-name="Path 7099" d="M59.269,42.806l-.763-.763-.763.763Z" transform="translate(-51.408 -16.725)" fill="#0072a1"></path><path id="Path_7100" data-name="Path 7100" d="M57.565,47.739l.92.92.921-.92Z" transform="translate(-51.386 -17.416)" fill="#eec900"></path><rect id="Rectangle_3329" data-name="Rectangle 3329" width="4.188" height="4.188" transform="translate(33.754 4.587) rotate(-45)" fill="#0f266f"></rect><path id="Path_7101" data-name="Path 7101" d="M48.461,42.4h2.209l.762-.762-2.962-2.962-.209.209v5.506l.2.2Z" transform="translate(-50.256 -16.315)" fill="#52bddf"></path><rect id="Rectangle_3330" data-name="Rectangle 3330" width="4.188" height="4.188" transform="translate(30.792 7.549) rotate(-45)" fill="#0d2871"></rect><path id="Path_7102" data-name="Path 7102" d="M52.527,42.806l-.762-.762L51,42.806Z" transform="translate(-50.589 -16.725)" fill="#005284"></path><path id="Path_7103" data-name="Path 7103" d="M50.822,47.739l.921.921.92-.921Z" transform="translate(-50.567 -17.416)" fill="#f4a000"></path><path id="Path_7104" data-name="Path 7104" d="M48.461,47.458V45.425l-.2.2v5.506l.209.208,2.962-2.961-.92-.921Z" transform="translate(-50.256 -17.135)" fill="#f4a000"></path><rect id="Rectangle_3331" data-name="Rectangle 3331" width="4.188" height="4.188" transform="translate(27.83 10.511) rotate(-45)" fill="#35237f"></rect><path id="Path_7105" data-name="Path 7105" d="M52.79,47.739l-.92.921,2.962,2.961,2.962-2.961-.921-.921Z" transform="translate(-50.695 -17.416)" fill="#eec900"></path><path id="Path_7106" data-name="Path 7106" d="M54.422,51.747l-.211.21h-5.5l-.21-.21,2.962-2.961Z" transform="translate(-50.285 -17.544)" fill="#eec900"></path><rect id="Rectangle_3332" data-name="Rectangle 3332" width="4.188" height="4.188" transform="translate(24.869 13.472) rotate(-45)" fill="#002740"></rect><path id="Path_7107" data-name="Path 7107" d="M61.164,51.747l-.21.21h-5.5l-.211-.21L58.2,48.787Z" transform="translate(-51.104 -17.544)" fill="#b7ca1d"></path><rect id="Rectangle_3333" data-name="Rectangle 3333" width="4.188" height="4.188" transform="translate(21.907 16.434) rotate(-45)" fill="#003254"></rect><rect id="Rectangle_3334" data-name="Rectangle 3334" width="4.188" height="4.188" transform="translate(18.945 19.396) rotate(-45)" fill="#005284"></rect><rect id="Rectangle_3335" data-name="Rectangle 3335" width="4.189" height="4.189" transform="translate(15.983 22.357) rotate(-45)" fill="#006ea3"></rect><path id="Path_7108" data-name="Path 7108" d="M69.717,42.4v.8l1.56-1.56-2.962-2.962-2.962,2.962.763.763Z" transform="translate(-52.332 -16.315)" fill="#1984b0"></path><path id="Path_7109" data-name="Path 7109" d="M66.012,42.806l-.763-.763-.762.763Z" transform="translate(-52.227 -16.725)" fill="#005284"></path><path id="Path_7110" data-name="Path 7110" d="M64.307,47.739l.92.92.92-.92Z" transform="translate(-52.205 -17.416)" fill="#8fbc2a"></path><path id="Path_7111" data-name="Path 7111" d="M59.532,47.739l-.92.92,2.962,2.962,2.962-2.962-.92-.92Z" transform="translate(-51.513 -17.416)" fill="#780b15"></path><path id="Path_7112" data-name="Path 7112" d="M95.5,24.157l-.212.212-2.962-2.962,2.962-2.962.212.212Z" transform="translate(-55.608 -13.858)" fill="#002e78"></path><rect id="Rectangle_3336" data-name="Rectangle 3336" width="4.188" height="4.188" transform="translate(33.754 10.511) rotate(-45)" fill="#00317b"></rect><path id="Path_7113" data-name="Path 7113" d="M48.261,51.92l.209.208-.209.209Z" transform="translate(-50.256 -17.924)" fill="#f4a000"></path><path id="Path_7114" data-name="Path 7114" d="M48.261,52.366l.209-.209.21.21h-.419Z" transform="translate(-50.256 -17.953)" fill="#eec900"></path><path id="Path_7115" data-name="Path 7115" d="M55.422,52.367H55l.21-.21Z" transform="translate(-51.075 -17.953)" fill="#b7ca1d"></path><rect id="Rectangle_3337" data-name="Rectangle 3337" width="4.188" height="4.188" transform="translate(30.792 13.472) rotate(-45)" fill="#2a267f"></rect><rect id="Rectangle_3338" data-name="Rectangle 3338" width="4.188" height="4.188" transform="translate(27.83 16.434) rotate(-45)" fill="#005284"></rect><rect id="Rectangle_3339" data-name="Rectangle 3339" width="4.188" height="4.188" transform="translate(24.869 19.396) rotate(-45)" fill="#00273f"></rect><rect id="Rectangle_3340" data-name="Rectangle 3340" width="4.189" height="4.189" transform="translate(21.907 22.357) rotate(-45)" fill="#003254"></rect><rect id="Rectangle_3341" data-name="Rectangle 3341" width="4.188" height="4.188" transform="matrix(0.707, -0.707, 0.707, 0.707, 18.945, 25.319)" fill="#002d4a"></rect><path id="Path_7116" data-name="Path 7116" d="M71.881,42.044l-1.56,1.56v2.8l1.56,1.56L74.843,45Z" transform="translate(-52.936 -16.725)" fill="#8cbb2b"></path><path id="Path_7117" data-name="Path 7117" d="M69.717,47.01v.64H66.274l-.92.92,2.962,2.962,2.962-2.962Z" transform="translate(-52.332 -17.328)" fill="#a1c223"></path><path id="Path_7118" data-name="Path 7118" d="M67.906,51.747l-.21.211h-5.5l-.21-.211,2.962-2.961Z" transform="translate(-51.923 -17.544)" fill="#9ac125"></path><path id="Path_7119" data-name="Path 7119" d="M95.906,25.371l-.212-.212.212-.213Z" transform="translate(-56.018 -14.648)" fill="#003581"></path><path id="Path_7120" data-name="Path 7120" d="M95.5,30.9l-.212.212-2.962-2.962,2.962-2.962.212.212Z" transform="translate(-55.608 -14.677)" fill="#003c89"></path><rect id="Rectangle_3342" data-name="Rectangle 3342" width="4.188" height="4.188" transform="translate(33.754 16.434) rotate(-45)" fill="#00509f"></rect><rect id="Rectangle_3343" data-name="Rectangle 3343" width="4.188" height="4.188" transform="translate(30.792 19.396) rotate(-45)" fill="#431c5c"></rect><rect id="Rectangle_3344" data-name="Rectangle 3344" width="4.189" height="4.189" transform="translate(27.83 22.357) rotate(-45)" fill="#5c4190"></rect><rect id="Rectangle_3345" data-name="Rectangle 3345" width="4.188" height="4.188" transform="matrix(0.707, -0.707, 0.707, 0.707, 24.868, 25.319)" fill="#269b79"></rect><rect id="Rectangle_3346" data-name="Rectangle 3346" width="4.188" height="4.188" transform="matrix(0.707, -0.707, 0.707, 0.707, 21.907, 28.28)" fill="#005284"></rect><rect id="Rectangle_3347" data-name="Rectangle 3347" width="4.188" height="4.188" transform="matrix(0.707, -0.707, 0.707, 0.707, 18.945, 31.242)" fill="#a1c223"></rect><path id="Path_7121" data-name="Path 7121" d="M74.649,51.747l-.211.211h-5.5l-.21-.211,2.962-2.961Z" transform="translate(-52.742 -17.544)" fill="#9ac125"></path><path id="Path_7122" data-name="Path 7122" d="M68.907,52.367h-.421l.21-.211Z" transform="translate(-52.713 -17.953)" fill="#9ac125"></path><path id="Path_7123" data-name="Path 7123" d="M95.906,32.113l-.212-.213.212-.212Z" transform="translate(-56.018 -15.467)" fill="#004e9d"></path><path id="Path_7124" data-name="Path 7124" d="M95.5,37.642l-.212.212-2.962-2.962,2.962-2.962.212.213Z" transform="translate(-55.608 -15.496)" fill="#005daa"></path><rect id="Rectangle_3348" data-name="Rectangle 3348" width="4.189" height="4.189" transform="translate(33.753 22.357) rotate(-45)" fill="#0072bc"></rect><rect id="Rectangle_3349" data-name="Rectangle 3349" width="4.188" height="4.188" transform="matrix(0.707, -0.707, 0.707, 0.707, 30.792, 25.319)" fill="#0081b4"></rect><rect id="Rectangle_3350" data-name="Rectangle 3350" width="4.188" height="4.188" transform="matrix(0.707, -0.707, 0.707, 0.707, 27.83, 28.28)" fill="#21957b"></rect><rect id="Rectangle_3351" data-name="Rectangle 3351" width="4.188" height="4.188" transform="matrix(0.707, -0.707, 0.707, 0.707, 24.868, 31.242)" fill="#8fbc2a"></rect><path id="Path_7125" data-name="Path 7125" d="M81.391,51.747l-.211.211h-5.5l-.21-.211,2.962-2.961Z" transform="translate(-53.561 -17.544)" fill="#b8ca1b"></path><path id="Path_7126" data-name="Path 7126" d="M75.649,52.367h-.421l.211-.211Z" transform="translate(-53.532 -17.953)" fill="#b8ca1b"></path><path id="Path_7127" data-name="Path 7127" d="M95.906,38.855l-.212-.213.212-.213Z" transform="translate(-56.018 -16.286)" fill="#0072bc"></path><path id="Path_7128" data-name="Path 7128" d="M95.5,44.383l-.212.213-2.962-2.962,2.962-2.962.212.213Z" transform="translate(-55.608 -16.315)" fill="#0072bc"></path><rect id="Rectangle_3352" data-name="Rectangle 3352" width="4.188" height="4.188" transform="translate(33.753 28.28) rotate(-45)" fill="#0072bc"></rect><rect id="Rectangle_3353" data-name="Rectangle 3353" width="4.188" height="4.188" transform="translate(30.792 31.242) rotate(-45)" fill="#21957b"></rect><path id="Path_7129" data-name="Path 7129" d="M88.133,51.747l-.211.211h-5.5l-.211-.211,2.962-2.962Z" transform="translate(-54.38 -17.544)" fill="#a6c523"></path><path id="Path_7130" data-name="Path 7130" d="M82.391,52.367H81.97l.211-.211Z" transform="translate(-54.351 -17.953)" fill="#b8ca1b"></path><path id="Path_7131" data-name="Path 7131" d="M95.906,45.6l-.212-.213.212-.213Z" transform="translate(-56.018 -17.105)" fill="#0072bc"></path><path id="Path_7132" data-name="Path 7132" d="M95.5,51.125l-.212.213-2.962-2.962,2.962-2.962.212.213Z" transform="translate(-55.608 -17.134)" fill="#0072bc"></path><path id="Path_7133" data-name="Path 7133" d="M94.875,51.747l-.211.211h-5.5l-.211-.211,2.962-2.962Z" transform="translate(-55.199 -17.544)" fill="#21957b"></path><path id="Path_7134" data-name="Path 7134" d="M89.134,52.367h-.423l.212-.211Z" transform="translate(-55.169 -17.953)" fill="#a6c523"></path><path id="Path_7135" data-name="Path 7135" d="M95.906,52.338h0l-.211-.211.212-.213Z" transform="translate(-56.018 -17.924)" fill="#0072bc"></path><path id="Path_7136" data-name="Path 7136" d="M95.876,52.367h-.423l.212-.211Z" transform="translate(-55.988 -17.953)" fill="#21957b"></path><path id="Path_7137" data-name="Path 7137" d="M48.261,38.435l.209.208-.209.209Z" transform="translate(-50.256 -16.286)" fill="#ef6412"></path><path id="Path_7138" data-name="Path 7138" d="M62.164,52.367h-.421l.211-.21Z" transform="translate(-51.894 -17.953)" fill="#b7ca1d"></path><path id="Path_7139" data-name="Path 7139" d="M54.213,4.721l.223.222L51.474,7.906,48.512,4.945l.223-.223Z" transform="translate(-50.287 -12.191)" fill="#d3004c"></path><path id="Path_7140" data-name="Path 7140" d="M48.261,5.2l.221-.221,2.962,2.962L48.482,10.9l-.221-.22Z" transform="translate(-50.256 -12.222)" fill="#da001f"></path><path id="Path_7141" data-name="Path 7141" d="M48.261,11.466l.221.221-.221.22Z" transform="translate(-50.256 -13.01)" fill="#da001f"></path><path id="Path_7142" data-name="Path 7142" d="M60.955,4.721l.223.223L58.216,7.906,55.255,4.944l.223-.222Z" transform="translate(-51.106 -12.191)" fill="#d3004c"></path><rect id="Rectangle_3354" data-name="Rectangle 3354" width="4.188" height="4.188" transform="matrix(0.707, -0.707, 0.707, 0.707, 1.188, -4.285)" fill="#ca005d"></rect><rect id="Rectangle_3355" data-name="Rectangle 3355" width="4.188" height="4.188" transform="matrix(0.707, -0.707, 0.707, 0.707, -1.774, -1.324)" fill="#da001f"></rect><path id="Path_7143" data-name="Path 7143" d="M48.261,11.938l.221-.221,2.962,2.962L48.482,17.64l-.221-.22Z" transform="translate(-50.256 -13.041)" fill="#da001f"></path><path id="Path_7144" data-name="Path 7144" d="M48.261,18.208l.221.221-.221.221Z" transform="translate(-50.256 -13.829)" fill="#da001f"></path><path id="Path_7145" data-name="Path 7145" d="M87.923,4.721l.21.211L85.171,7.894,82.21,4.932l.211-.211Z" transform="translate(-54.38 -12.191)" fill="#1f236e"></path><path id="Path_7146" data-name="Path 7146" d="M94.665,4.721l.211.211L91.914,7.894,88.952,4.932l.211-.211Z" transform="translate(-55.199 -12.191)" fill="#1f236e"></path><path id="Path_7147" data-name="Path 7147" d="M89.9,9.532,91.5,7.923,88.542,4.961,85.581,7.923l1.609,1.609Z" transform="translate(-54.789 -12.22)" fill="#1f236e"></path><path id="Path_7148" data-name="Path 7148" d="M95.5,9.532V5.173l-.212-.212L92.323,7.923l1.609,1.609Z" transform="translate(-55.608 -12.22)" fill="#0f266f"></path><path id="Path_7149" data-name="Path 7149" d="M93.71,9.941,92.1,8.332,90.492,9.941Z" transform="translate(-55.386 -12.63)" fill="#0f266f"></path><path id="Path_7150" data-name="Path 7150" d="M89,11.754l2.917,2.917,2.918-2.917Z" transform="translate(-55.205 -13.045)" fill="#0f266f"></path><path id="Path_7151" data-name="Path 7151" d="M95.24,11.754l-2.918,2.917,2.962,2.962.212-.212v-5.5l-.167-.168Z" transform="translate(-55.608 -13.045)" fill="#0f266f"></path><path id="Path_7152" data-name="Path 7152" d="M95.906,18.628l-.212-.212.212-.213Z" transform="translate(-56.018 -13.829)" fill="#0f266f"></path></g><g id="Group_11282" data-name="Group 11282" transform="translate(30.315 20.312)" style="mix-blend-mode: multiply;isolation: isolate"><g id="Group_11281" data-name="Group 11281"><g id="Group_11280" data-name="Group 11280" clip-path="url(#clip-path-4)"><g id="Group_11279" data-name="Group 11279" transform="translate(0 0)"><g id="Group_11278" data-name="Group 11278" clip-path="url(#clip-path-5)"><rect id="Rectangle_3356" data-name="Rectangle 3356" width="14.237" height="14.287" transform="translate(-4.387 7.751) rotate(-61.477)" fill="url(#linear-gradient)"></rect></g></g></g></g></g><g id="Group_11287" data-name="Group 11287" transform="translate(22.386 5.178)" opacity="0.8" style="mix-blend-mode: multiply;isolation: isolate"><g id="Group_11286" data-name="Group 11286"><g id="Group_11285" data-name="Group 11285" clip-path="url(#clip-path-6)"><g id="Group_11284" data-name="Group 11284" transform="translate(0 0)"><g id="Group_11283" data-name="Group 11283" clip-path="url(#clip-path-7)"><rect id="Rectangle_3358" data-name="Rectangle 3358" width="10.581" height="10.506" transform="translate(0 0)" fill="url(#linear-gradient-2)"></rect></g></g></g></g></g><rect id="Rectangle_3360" data-name="Rectangle 3360" width="0.827" height="26.864" transform="translate(69.877 4.595)" fill="#97999d"></rect><path id="Path_7156" data-name="Path 7156" d="M112.764,20.672V14.1h2.909a2.558,2.558,0,0,1,1.58.332,1.9,1.9,0,0,1,.373,1.406,1.288,1.288,0,0,1-.843,1.382v.014a1.376,1.376,0,0,1,1.044,1.545,2.087,2.087,0,0,1-.41,1.468,1.957,1.957,0,0,1-1.433.423Zm.741-3.682h1.949a2.1,2.1,0,0,0,1.2-.221,1.3,1.3,0,0,0,.267-.987,1.135,1.135,0,0,0-.233-.859,1.79,1.79,0,0,0-1.029-.2h-2.152Zm0,3.056h1.574l.669,0a1.88,1.88,0,0,0,1.11-.22,1.2,1.2,0,0,0,.263-.927c0-.587-.089-.947-.264-1.081a3.04,3.04,0,0,0-1.44-.2h-1.912Z" transform="translate(-35.862 -8.965)" fill="#1a1718"></path><path id="Path_7157" data-name="Path 7157" d="M125.281,14.1h.741v4.6a2.039,2.039,0,0,1-.5,1.645,3.792,3.792,0,0,1-2.11.392,3.864,3.864,0,0,1-2.049-.378,1.642,1.642,0,0,1-.542-1.436V14.1h.741v4.6q0,.934.3,1.173a2.872,2.872,0,0,0,1.492.238,3.323,3.323,0,0,0,1.608-.234q.318-.233.318-1.177Z" transform="translate(-36.839 -8.965)" fill="#1a1718"></path><path id="Path_7158" data-name="Path 7158" d="M133.742,15.872h-.735q0-.795-.266-1.009a2.278,2.278,0,0,0-1.247-.214,3.449,3.449,0,0,0-1.5.2c-.225.136-.336.441-.336.912,0,.53.087.852.264.968a4.347,4.347,0,0,0,1.573.235,3.989,3.989,0,0,1,1.952.39q.418.323.416,1.444,0,1.214-.479,1.569a4.033,4.033,0,0,1-2.115.357,3.379,3.379,0,0,1-1.89-.359,1.755,1.755,0,0,1-.47-1.446l-.005-.293h.737v.163c0,.588.09.952.269,1.1a2.7,2.7,0,0,0,1.382.213,3.371,3.371,0,0,0,1.569-.213c.2-.143.293-.524.293-1.144a1.166,1.166,0,0,0-.2-.8,1.352,1.352,0,0,0-.836-.239l-.77-.038-.732-.039a1.57,1.57,0,0,1-1.67-1.733,1.826,1.826,0,0,1,.486-1.5,3.437,3.437,0,0,1,1.94-.375,3.479,3.479,0,0,1,1.921.349,1.871,1.871,0,0,1,.447,1.5" transform="translate(-37.822 -8.956)" fill="#1a1718"></path><rect id="Rectangle_3361" data-name="Rectangle 3361" width="0.741" height="6.571" transform="translate(97.917 5.136)" fill="#1a1718"></rect><path id="Path_7159" data-name="Path 7159" d="M145.7,14.1v6.571h-1.218L141.732,16.2l-.447-.736-.221-.366-.221-.365h-.019l0,.245.005.25v5.444h-.741V14.1H141.3l2.4,3.918.626,1.03.313.51.308.515h.019l0-.245-.005-.25V14.1Z" transform="translate(-39.181 -8.965)" fill="#1a1718"></path><path id="Path_7160" data-name="Path 7160" d="M149.467,14.726v2.238H152.8v.626h-3.336v2.455h3.481v.626h-4.222V14.1h4.222v.625Z" transform="translate(-40.23 -8.965)" fill="#1a1718"></path><path id="Path_7161" data-name="Path 7161" d="M160.2,15.872h-.736q0-.795-.265-1.009a2.281,2.281,0,0,0-1.247-.214,3.447,3.447,0,0,0-1.5.2c-.225.136-.337.441-.337.912q0,.795.264.968a4.349,4.349,0,0,0,1.574.235,3.992,3.992,0,0,1,1.952.39q.416.323.416,1.444,0,1.214-.479,1.569a4.037,4.037,0,0,1-2.116.357,3.379,3.379,0,0,1-1.89-.359,1.755,1.755,0,0,1-.469-1.446l-.005-.293h.737v.163q0,.882.269,1.1a2.694,2.694,0,0,0,1.382.213,3.373,3.373,0,0,0,1.569-.213q.294-.215.293-1.144a1.161,1.161,0,0,0-.2-.8,1.349,1.349,0,0,0-.835-.239l-.77-.038-.732-.039A1.57,1.57,0,0,1,155.4,15.9a1.823,1.823,0,0,1,.486-1.5,3.435,3.435,0,0,1,1.94-.375,3.475,3.475,0,0,1,1.92.349,1.871,1.871,0,0,1,.448,1.5" transform="translate(-41.036 -8.956)" fill="#1a1718"></path><path id="Path_7162" data-name="Path 7162" d="M167.6,15.872h-.736q0-.795-.265-1.009a2.281,2.281,0,0,0-1.247-.214,3.447,3.447,0,0,0-1.5.2c-.225.136-.337.441-.337.912q0,.795.264.968a4.349,4.349,0,0,0,1.574.235,3.992,3.992,0,0,1,1.952.39q.416.323.416,1.444,0,1.214-.479,1.569a4.037,4.037,0,0,1-2.115.357,3.379,3.379,0,0,1-1.89-.359,1.755,1.755,0,0,1-.469-1.446l-.005-.293h.737v.163q0,.882.269,1.1a2.694,2.694,0,0,0,1.382.213,3.373,3.373,0,0,0,1.569-.213q.294-.215.293-1.144a1.161,1.161,0,0,0-.2-.8,1.349,1.349,0,0,0-.835-.239l-.77-.038-.732-.039A1.57,1.57,0,0,1,162.8,15.9a1.823,1.823,0,0,1,.486-1.5,3.435,3.435,0,0,1,1.94-.375,3.475,3.475,0,0,1,1.92.349,1.871,1.871,0,0,1,.448,1.5" transform="translate(-41.934 -8.956)" fill="#1a1718"></path><path id="Path_7163" data-name="Path 7163" d="M117.224,27h-.736q0-.795-.265-1.009a2.289,2.289,0,0,0-1.247-.214,3.446,3.446,0,0,0-1.5.2q-.337.206-.337.912,0,.795.264.968a4.362,4.362,0,0,0,1.574.236,4,4,0,0,1,1.952.389q.416.323.416,1.444,0,1.214-.479,1.569a4.037,4.037,0,0,1-2.116.357,3.389,3.389,0,0,1-1.89-.358,1.757,1.757,0,0,1-.469-1.447l-.005-.293h.737v.163q0,.882.269,1.1a2.691,2.691,0,0,0,1.382.214,3.369,3.369,0,0,0,1.569-.214q.294-.215.293-1.144a1.161,1.161,0,0,0-.2-.8,1.344,1.344,0,0,0-.835-.238l-.77-.039-.732-.039a1.57,1.57,0,0,1-1.67-1.732,1.824,1.824,0,0,1,.486-1.5,3.435,3.435,0,0,1,1.94-.375,3.475,3.475,0,0,1,1.92.349,1.871,1.871,0,0,1,.448,1.5" transform="translate(-35.815 -10.307)" fill="#1a1718"></path><path id="Path_7164" data-name="Path 7164" d="M124.438,29.6h.736v.25q0,1.343-.457,1.677a4.754,4.754,0,0,1-2.3.336q-1.651,0-2.1-.59a5.364,5.364,0,0,1-.448-2.775,13.161,13.161,0,0,1,.1-2.149,1.369,1.369,0,0,1,.578-.787,4.661,4.661,0,0,1,2.412-.4,2.637,2.637,0,0,1,1.692.389,2,2,0,0,1,.436,1.507l0,.178h-.736l-.005-.2a1.4,1.4,0,0,0-.257-1.02,1.945,1.945,0,0,0-1.162-.227,4.111,4.111,0,0,0-1.94.264q-.352.265-.351,1.469a11.655,11.655,0,0,0,.235,3.244q.236.476,1.613.476a3.815,3.815,0,0,0,1.634-.207q.326-.207.325-1.039Z" transform="translate(-36.725 -10.308)" fill="#1a1718"></path><rect id="Rectangle_3362" data-name="Rectangle 3362" width="0.741" height="6.571" transform="translate(90.274 14.912)" fill="#1a1718"></rect><path id="Path_7165" data-name="Path 7165" d="M131.831,25.855v2.238h3.336v.626h-3.336v2.455h3.481V31.8H131.09V25.229h4.222v.625Z" transform="translate(-38.088 -10.317)" fill="#1a1718"></path><path id="Path_7166" data-name="Path 7166" d="M143.715,25.229V31.8H142.5l-2.754-4.472-.447-.736-.221-.366-.221-.365h-.019l0,.245.005.25V31.8H138.1V25.229h1.213l2.4,3.918.626,1.03.313.51.308.515h.019l0-.245-.005-.25V25.229Z" transform="translate(-38.939 -10.317)" fill="#1a1718"></path><path id="Path_7167" data-name="Path 7167" d="M151.31,29.6h.736v.25q0,1.343-.457,1.677a4.754,4.754,0,0,1-2.3.336q-1.651,0-2.1-.59a5.364,5.364,0,0,1-.448-2.775,13.163,13.163,0,0,1,.1-2.149,1.37,1.37,0,0,1,.578-.787,4.661,4.661,0,0,1,2.412-.4,2.637,2.637,0,0,1,1.692.389,2,2,0,0,1,.436,1.507l0,.178h-.736l-.005-.2a1.4,1.4,0,0,0-.257-1.02,1.945,1.945,0,0,0-1.162-.227,4.111,4.111,0,0,0-1.94.264q-.352.265-.351,1.469a11.656,11.656,0,0,0,.235,3.244q.236.476,1.613.476a3.815,3.815,0,0,0,1.634-.207q.326-.207.325-1.039Z" transform="translate(-39.988 -10.308)" fill="#1a1718"></path><path id="Path_7168" data-name="Path 7168" d="M155.3,25.855v2.238h3.336v.626H155.3v2.455h3.481V31.8h-4.222V25.229h4.222v.625Z" transform="translate(-40.937 -10.317)" fill="#1a1718"></path><path id="Path_7169" data-name="Path 7169" d="M117.037,40.724h.736v.25q0,1.343-.457,1.677a4.758,4.758,0,0,1-2.3.335q-1.651,0-2.1-.589a5.364,5.364,0,0,1-.448-2.775,13.163,13.163,0,0,1,.1-2.149,1.367,1.367,0,0,1,.578-.787,4.661,4.661,0,0,1,2.412-.4,2.637,2.637,0,0,1,1.692.389,2,2,0,0,1,.436,1.507l0,.178h-.736l-.005-.2a1.4,1.4,0,0,0-.257-1.021,1.954,1.954,0,0,0-1.162-.226,4.111,4.111,0,0,0-1.94.264q-.352.265-.351,1.468a11.645,11.645,0,0,0,.235,3.244q.236.477,1.613.477a3.83,3.83,0,0,0,1.634-.207q.326-.207.325-1.039Z" transform="translate(-35.826 -11.659)" fill="#1a1718"></path><path id="Path_7170" data-name="Path 7170" d="M122.929,36.281q1.863,0,2.33.544a4.863,4.863,0,0,1,.468,2.72,5.584,5.584,0,0,1-.448,2.893q-.448.548-2.35.548t-2.346-.544a5.239,5.239,0,0,1-.455-2.811v-.462l.01-.621a2.211,2.211,0,0,1,.59-1.788,3.641,3.641,0,0,1,2.2-.479m0,.626q-1.56,0-1.826.346a5.712,5.712,0,0,0-.264,2.378,5.733,5.733,0,0,0,.264,2.383q.266.347,1.826.346t1.829-.346a5.726,5.726,0,0,0,.264-2.383V39.2l-.005-.621q0-1.089-.365-1.382a3.18,3.18,0,0,0-1.723-.293" transform="translate(-36.756 -11.659)" fill="#1a1718"></path><path id="Path_7171" data-name="Path 7171" d="M128.587,42.928V36.357h3.129a2.119,2.119,0,0,1,1.492.419,1.974,1.974,0,0,1,.433,1.453,2.453,2.453,0,0,1-.235,1.269,1.249,1.249,0,0,1-.9.465v.015q1.045.076,1.045,1.27v1.68h-.741V41.416q0-1.15-1-1.151h-2.484v2.662Zm.741-3.287h2.142a1.876,1.876,0,0,0,1.155-.257,1.225,1.225,0,0,0,.308-.97,1.968,1.968,0,0,0-.228-1.161,1.291,1.291,0,0,0-.98-.27h-2.4Z" transform="translate(-37.784 -11.668)" fill="#1a1718"></path><path id="Path_7172" data-name="Path 7172" d="M136.7,42.928V36.357h3.009a2.072,2.072,0,0,1,1.516.428,2.371,2.371,0,0,1,.4,1.6,2.138,2.138,0,0,1-.421,1.536,2.291,2.291,0,0,1-1.581.409l-.289,0h-1.9v2.59Zm.742-3.215H139.2a2.783,2.783,0,0,0,1.413-.227q.311-.225.311-1.039a2.179,2.179,0,0,0-.21-1.206q-.21-.252-.994-.252l-.285-.005h-1.993Z" transform="translate(-38.769 -11.668)" fill="#1a1718"></path><path id="Path_7173" data-name="Path 7173" d="M146.789,36.281q1.863,0,2.33.544a4.874,4.874,0,0,1,.467,2.72,5.574,5.574,0,0,1-.448,2.893q-.447.548-2.349.548t-2.347-.544a5.248,5.248,0,0,1-.455-2.811v-.462l.01-.621a2.211,2.211,0,0,1,.59-1.788,3.646,3.646,0,0,1,2.2-.479m0,.626q-1.56,0-1.825.346a5.69,5.69,0,0,0-.264,2.378,5.711,5.711,0,0,0,.264,2.383q.265.347,1.825.346t1.829-.346a5.711,5.711,0,0,0,.264-2.383V39.2l0-.621q0-1.089-.365-1.382a3.182,3.182,0,0,0-1.724-.293" transform="translate(-39.654 -11.659)" fill="#1a1718"></path><path id="Path_7174" data-name="Path 7174" d="M152.446,42.928V36.357h3.129a2.119,2.119,0,0,1,1.492.419,1.974,1.974,0,0,1,.433,1.453,2.453,2.453,0,0,1-.235,1.269,1.249,1.249,0,0,1-.9.465v.015q1.045.076,1.045,1.27v1.68h-.741V41.416q0-1.15-1-1.151h-2.484v2.662Zm.741-3.287h2.142a1.876,1.876,0,0,0,1.155-.257,1.225,1.225,0,0,0,.308-.97,1.968,1.968,0,0,0-.228-1.161,1.291,1.291,0,0,0-.98-.27h-2.4Z" transform="translate(-40.681 -11.668)" fill="#1a1718"></path><path id="Path_7175" data-name="Path 7175" d="M164.52,41.537h-3.327l-.505,1.391H159.9l2.406-6.571h1.04l2.455,6.571h-.775Zm-.217-.559-1.458-4.015-1.44,4.015Z" transform="translate(-41.587 -11.668)" fill="#1a1718"></path><path id="Path_7176" data-name="Path 7176" d="M170.719,37.045v5.883h-.742V37.045h-2.142v-.689h5.006v.689Z" transform="translate(-42.551 -11.668)" fill="#1a1718"></path><rect id="Rectangle_3363" data-name="Rectangle 3363" width="0.741" height="6.571" transform="translate(131.936 24.689)" fill="#1a1718"></rect><path id="Path_7177" data-name="Path 7177" d="M181.161,36.281q1.863,0,2.33.544a4.874,4.874,0,0,1,.467,2.72,5.574,5.574,0,0,1-.448,2.893q-.447.548-2.349.548t-2.347-.544a5.248,5.248,0,0,1-.455-2.811v-.462l.01-.621a2.211,2.211,0,0,1,.59-1.788,3.646,3.646,0,0,1,2.2-.479m0,.626q-1.56,0-1.825.346a5.689,5.689,0,0,0-.264,2.378,5.71,5.71,0,0,0,.264,2.383q.265.347,1.825.346t1.829-.346a5.71,5.71,0,0,0,.264-2.383V39.2l0-.621q0-1.089-.365-1.382a3.182,3.182,0,0,0-1.724-.293" transform="translate(-43.829 -11.659)" fill="#1a1718"></path><path id="Path_7178" data-name="Path 7178" d="M192.432,36.357v6.571h-1.218l-2.754-4.472-.447-.736-.221-.366-.221-.365h-.019l0,.245.005.25v5.444h-.741V36.357h1.213l2.4,3.918.626,1.03.313.51.308.515h.019l0-.245-.005-.25V36.357Z" transform="translate(-44.856 -11.668)" fill="#1a1718"></path></svg>